<?xml version="1.0" encoding="UTF-8"?>
<svg width="13px" height="10px" viewBox="0 0 13 10" version="1.1" xmlns="http://www.w3.org/2000/svg" xmlns:xlink="http://www.w3.org/1999/xlink">
    <!-- Generator: Sketch 51.2 (57519) - http://www.bohemiancoding.com/sketch -->
    <title>check-icon</title>
    <desc>Created with Sketch.</desc>
    <defs></defs>
    <g id="Symbols" stroke="none" stroke-width="1" fill="none" fill-rule="evenodd">
        <g id="Finish-button" transform="translate(-94.000000, -15.000000)" fill="#1993EF">
            <g id="check-icon">
                <path d="M104.056747,15.1197982 C104.136612,15.0399323 104.231189,15 104.340479,15 C104.449769,15 104.544346,15.0399323 104.624212,15.1197982 L106.339218,16.8348045 C106.419084,16.9146704 106.459016,17.009247 106.459016,17.1185372 C106.459016,17.2278274 106.419084,17.322404 106.339218,17.4022699 L100.68348,23.1651955 L98.9684741,24.8802018 C98.8886083,24.9600677 98.7940317,25 98.6847415,25 C98.5754513,25 98.4808747,24.9600677 98.4010088,24.8802018 L94.1197982,20.5989912 C94.0399323,20.5191253 94,20.4234978 94,20.3121059 C94,20.200714 94.0399323,20.1050866 94.1197982,20.0252207 L95.8348045,18.3165195 C95.9146704,18.2366537 96.009247,18.1967213 96.1185372,18.1967213 C96.2278274,18.1967213 96.322404,18.2366537 96.4022699,18.3165195 L98.6847415,20.5989912 L104.056747,15.1197982 Z"></path>
            </g>
        </g>
    </g>
</svg>