<?xml version="1.0" encoding="UTF-8"?>
<svg width="42px" height="48px" viewBox="0 0 42 48" version="1.1" xmlns="http://www.w3.org/2000/svg" xmlns:xlink="http://www.w3.org/1999/xlink">
    <!-- Generator: Sketch 51.2 (57519) - http://www.bohemiancoding.com/sketch -->
    <title>clipboard-icon-white</title>
    <desc>Created with Sketch.</desc>
    <defs>
        <filter x="-6.5%" y="-5.8%" width="113.0%" height="111.5%" filterUnits="objectBoundingBox" id="filter-1">
            <feOffset dx="0" dy="0" in="SourceAlpha" result="shadowOffsetOuter1"></feOffset>
            <feGaussianBlur stdDeviation="5" in="shadowOffsetOuter1" result="shadowBlurOuter1"></feGaussianBlur>
            <feColorMatrix values="0 0 0 0 0   0 0 0 0 0   0 0 0 0 0  0 0 0 0.2 0" type="matrix" in="shadowBlurOuter1" result="shadowMatrixOuter1"></feColorMatrix>
            <feMerge>
                <feMergeNode in="shadowMatrixOuter1"></feMergeNode>
                <feMergeNode in="SourceGraphic"></feMergeNode>
            </feMerge>
        </filter>
    </defs>
    <g id="Homepage" stroke="none" stroke-width="1" fill="none" fill-rule="evenodd">
        <g id="Normal-view,-active-and-hover-states" transform="translate(-325.000000, -234.000000)" fill="#FFFFFF">
            <g id="Page-content" transform="translate(31.000000, 0.000000)">
                <g id="Problems-pod" filter="url(#filter-1)" transform="translate(199.000000, 230.000000)">
                    <g id="Pod-top" transform="translate(1.000000, 0.000000)">
                        <path d="M120.46875,17.5273438 C120.660157,17.5729169 120.817382,17.6754549 120.94043,17.8349609 C121.063477,17.9944669 121.125,18.1744782 121.125,18.375 L121.125,20.125 C121.125,20.3619804 121.038412,20.5670564 120.865234,20.7402344 C120.692056,20.9134123 120.48698,21 120.25,21 L109.75,21 C109.51302,21 109.307944,20.9134123 109.134766,20.7402344 C108.961588,20.5670564 108.875,20.3619804 108.875,20.125 L108.875,18.375 C108.875,18.1744782 108.936523,17.9944669 109.05957,17.8349609 C109.182618,17.6754549 109.339843,17.5729169 109.53125,17.5273438 L112.388672,16.8164062 C112.379557,16.7708331 112.375,16.7070317 112.375,16.625 C112.375,15.8958297 112.630206,15.2760442 113.140625,14.765625 C113.651044,14.2552058 114.27083,14 115,14 C115.72917,14 116.348956,14.2552058 116.859375,14.765625 C117.369794,15.2760442 117.625,15.8958297 117.625,16.625 C117.625,16.7070317 117.620443,16.7708331 117.611328,16.8164062 L120.46875,17.5273438 Z M115,18.375 C115.483075,18.375 115.895506,18.2041033 116.237305,17.8623047 C116.579103,17.5205061 116.75,17.1080753 116.75,16.625 C116.75,16.1419247 116.579103,15.7294939 116.237305,15.3876953 C115.895506,15.0458967 115.483075,14.875 115,14.875 C114.516925,14.875 114.104494,15.0458967 113.762695,15.3876953 C113.420897,15.7294939 113.25,16.1419247 113.25,16.625 C113.25,17.1080753 113.420897,17.5205061 113.762695,17.8623047 C114.104494,18.2041033 114.516925,18.375 115,18.375 Z M124.625,19.25 C124.86198,19.25 125.067056,19.3365877 125.240234,19.5097656 C125.413412,19.6829436 125.5,19.8880196 125.5,20.125 L125.5,41.125 C125.5,41.3619804 125.413412,41.5670564 125.240234,41.7402344 C125.067056,41.9134123 124.86198,42 124.625,42 L105.375,42 C105.13802,42 104.932944,41.9134123 104.759766,41.7402344 C104.586588,41.5670564 104.5,41.3619804 104.5,41.125 L104.5,20.125 C104.5,19.8880196 104.586588,19.6829436 104.759766,19.5097656 C104.932944,19.3365877 105.13802,19.25 105.375,19.25 L107.125,19.25 L107.125,20.125 C107.125,20.8541703 107.380206,21.4739558 107.890625,21.984375 C108.401044,22.4947942 109.02083,22.75 109.75,22.75 L120.25,22.75 C120.97917,22.75 121.598956,22.4947942 122.109375,21.984375 C122.619794,21.4739558 122.875,20.8541703 122.875,20.125 L122.875,19.25 L124.625,19.25 Z" id="clipboard-icon-white"></path>
                    </g>
                </g>
            </g>
        </g>
    </g>
</svg>