<?xml version="1.0" encoding="UTF-8"?>
<svg width="18px" height="18px" viewBox="0 0 18 18" version="1.1" xmlns="http://www.w3.org/2000/svg" xmlns:xlink="http://www.w3.org/1999/xlink">
    <!-- Generator: Sketch 51.2 (57519) - http://www.bohemiancoding.com/sketch -->
    <title>cog@svg</title>
    <desc>Created with Sketch.</desc>
    <defs></defs>
    <g id="Homepage" stroke="none" stroke-width="1" fill="none" fill-rule="evenodd">
        <g id="Normal-view,-menu-collapsed" transform="translate(-50.000000, -192.000000)" fill="#3E3E3E" fill-rule="nonzero">
            <g id="Page-content" transform="translate(31.000000, 0.000000)">
                <g id="Page-title" transform="translate(19.000000, 192.000000)">
                    <g id="cog-icon">
                        <path d="M17.2141666,7.25000001 L15.165,7.25000001 C14.8474291,7.24980961 14.5611596,7.05857439 14.4393924,6.76527581 C14.3176252,6.47197723 14.3842764,6.13422182 14.6083333,5.90916668 L16.0483333,4.46166669 C16.3533151,4.15516396 16.3533151,3.65983609 16.0483333,3.35333336 L14.6391666,1.9366667 C14.4918699,1.78858455 14.2917107,1.70518819 14.0828457,1.70487551 C13.8739808,1.70456284 13.6735728,1.78735955 13.5258333,1.93500003 L12.0916667,3.36666669 C11.866855,3.59138194 11.5288262,3.65857152 11.2351661,3.53691231 C10.9415059,3.41525311 10.750029,3.12869692 10.75,2.81083336 L10.75,0.78583337 C10.7500663,0.577397081 10.6672947,0.377478751 10.519908,0.23009203 C10.3725213,0.0827053098 10.172603,-6.6302404e-05 9.96416666,3.98497175e-08 L7.9525,3.98497175e-08 C7.74406372,-6.6302404e-05 7.54414539,0.0827053098 7.39675867,0.23009203 C7.24937194,0.377478751 7.16660033,0.577397081 7.16666667,0.78583337 L7.16666667,2.80416669 C7.16656828,3.12241366 6.97467179,3.40922933 6.68053958,3.53075046 C6.38640737,3.65227158 6.04802906,3.58453966 5.82333335,3.35916669 L4.41500002,1.94583336 C4.26731436,1.7974541 4.06650283,1.71417546 3.85715297,1.71448839 C3.64780311,1.71480132 3.44724144,1.79867991 3.30000003,1.94750003 L1.9091667,3.35250003 C1.60505566,3.65962969 1.60580001,4.1546197 1.91083336,4.46083335 L3.35333336,5.90916668 C3.577412,6.1343586 3.64395643,6.47227146 3.52199067,6.76560913 C3.40002491,7.05894681 3.11351659,7.2500652 2.79583336,7.25000001 L0.78583337,7.25000001 C0.577397081,7.24993367 0.377478751,7.33270528 0.23009203,7.480092 C0.0827053098,7.62747872 -6.6302404e-05,7.82739705 3.98497175e-08,8.03583334 L3.98497175e-08,9.96416666 C-6.6302404e-05,10.172603 0.0827053098,10.3725213 0.23009203,10.519908 C0.377478751,10.6672947 0.577397081,10.7500663 0.78583337,10.75 L2.79250003,10.75 C3.1104031,10.7499477 3.39702883,10.941418 3.51870316,11.2351146 C3.64037749,11.5288113 3.57313409,11.8668845 3.34833336,12.0916667 L1.90333336,13.5391666 C1.59760805,13.8452854 1.5964911,14.3408395 1.90083336,14.6483333 L3.29916669,16.0591666 C3.44668413,16.2078852 3.64743784,16.2916053 3.85690996,16.2917617 C4.06638208,16.2919181 4.26726061,16.208498 4.41500002,16.06 L5.82333335,14.6441666 C6.04780267,14.4185581 6.38615732,14.350557 6.68036053,14.4719249 C6.97456375,14.5932929 7.16655759,14.8800792 7.16666667,15.1983333 L7.16666667,17.2141666 C7.16660033,17.4226029 7.24937194,17.6225212 7.39675867,17.769908 C7.54414539,17.9172947 7.74406372,18.0000663 7.9525,18 L9.96416666,18 C10.172603,18.0000663 10.3725213,17.9172947 10.519908,17.769908 C10.6672947,17.6225212 10.7500663,17.4226029 10.75,17.2141666 L10.75,15.1866666 C10.7499348,14.8689834 10.9410532,14.5824751 11.2343909,14.4605093 C11.5277285,14.3385436 11.8656414,14.405088 12.0908333,14.6291666 L13.5275,16.06 C13.8345023,16.3664598 14.3317911,16.3660868 14.6383333,16.0591666 L16.0483333,14.6475 C16.3547944,14.3407674 16.3551672,13.8438586 16.0491666,13.5366666 L14.6091666,12.0908333 C14.385088,11.8656414 14.3185436,11.5277285 14.4405093,11.2343909 C14.5624751,10.9410532 14.8489834,10.7499348 15.1666666,10.75 L17.2141666,10.75 C17.4226029,10.7500663 17.6225212,10.6672947 17.769908,10.519908 C17.9172947,10.3725213 18.0000663,10.172603 18,9.96416666 L18,8.03583334 C18.0000663,7.82739705 17.9172947,7.62747872 17.769908,7.480092 C17.6225212,7.33270528 17.4226029,7.24993367 17.2141666,7.25000001 Z M9,12.5 C7.06700338,12.5 5.50000002,10.9329966 5.50000002,9 C5.50000002,7.06700338 7.06700338,5.50000002 9,5.50000002 C10.9329966,5.50000002 12.5,7.06700338 12.5,9 C12.5001105,9.92829159 12.1313971,10.8185945 11.4749958,11.4749958 C10.8185945,12.1313971 9.92829159,12.5001105 9,12.5 Z" id="cog"></path>
                    </g>
                </g>
            </g>
        </g>
    </g>
</svg>