<?xml version="1.0" encoding="UTF-8"?>
<svg width="48px" height="48px" viewBox="0 0 48 48" version="1.1" xmlns="http://www.w3.org/2000/svg" xmlns:xlink="http://www.w3.org/1999/xlink">
    <!-- Generator: Sketch 51.2 (57519) - http://www.bohemiancoding.com/sketch -->
    <title>flower-icon-white</title>
    <desc>Created with Sketch.</desc>
    <defs>
        <filter x="-6.5%" y="-5.8%" width="113.0%" height="111.5%" filterUnits="objectBoundingBox" id="filter-1">
            <feOffset dx="0" dy="0" in="SourceAlpha" result="shadowOffsetOuter1"></feOffset>
            <feGaussianBlur stdDeviation="5" in="shadowOffsetOuter1" result="shadowBlurOuter1"></feGaussianBlur>
            <feColorMatrix values="0 0 0 0 0   0 0 0 0 0   0 0 0 0 0  0 0 0 0.2 0" type="matrix" in="shadowBlurOuter1" result="shadowMatrixOuter1"></feColorMatrix>
            <feMerge>
                <feMergeNode in="shadowMatrixOuter1"></feMergeNode>
                <feMergeNode in="SourceGraphic"></feMergeNode>
            </feMerge>
        </filter>
    </defs>
    <g id="Homepage" stroke="none" stroke-width="1" fill="none" fill-rule="evenodd">
        <g id="Normal-view,-active-and-hover-states" transform="translate(-811.000000, -240.000000)" fill="#FFFFFF">
            <g id="Page-content" transform="translate(31.000000, 0.000000)">
                <g id="Allergies-pod" filter="url(#filter-1)" transform="translate(689.000000, 230.000000)">
                    <g id="Pod-top" transform="translate(1.000000, 0.000000)">
                        <path d="M113.5,38 C111.01471,38 109,35.9852971 109,33.5000169 C109,31.0147366 111.01471,29 113.5,29 C115.98529,29 118,31.0147366 118,33.5000169 C118,35.9852971 115.98529,38 113.5,38 M120.567395,36.7202969 C120.872985,36.7341576 121.184161,36.7413983 121.500026,36.7413983 C125.642163,36.7413983 129,34.0000172 129,34.0000172 C129,34.0000172 125.642163,31.2586362 121.500026,31.2586362 C121.184161,31.2586362 120.872985,31.2658424 120.567395,31.2797031 C120.793269,31.0734133 121.018419,30.8584693 121.241776,30.6351468 C124.17069,27.7062328 124.606612,23.3934227 124.606612,23.3934227 C124.606612,23.3934227 120.293802,23.8293102 117.364853,26.7582587 C117.141531,26.9815812 116.926587,27.2067655 116.720297,27.4326395 C116.734158,27.1270494 116.741398,26.8158391 116.741398,26.5000086 C116.741398,22.3578711 114.000017,19 114.000017,19 C114.000017,19 111.258636,22.3578711 111.258636,26.5000086 C111.258636,26.8158391 111.265877,27.1270494 111.279703,27.4326395 C111.073448,27.2067655 110.858504,26.9815812 110.635147,26.7582587 C107.706233,23.8293102 103.393423,23.3934227 103.393423,23.3934227 C103.393423,23.3934227 103.829345,27.7062328 106.758259,30.6351468 C106.981581,30.8584693 107.206766,31.0734133 107.432639,31.2797031 C107.127049,31.2658424 106.815839,31.2586362 106.500009,31.2586362 C102.357871,31.2586362 99,34.0000172 99,34.0000172 C99,34.0000172 102.357871,36.7413983 106.500009,36.7413983 C106.815839,36.7413983 107.127049,36.7341576 107.432639,36.7202969 C107.206766,36.9265867 106.981616,37.1415307 106.758259,37.3648532 C103.829345,40.2938017 103.393423,44.6066118 103.393423,44.6066118 C103.393423,44.6066118 107.706233,44.1706898 110.635147,41.2417413 C110.858504,41.0184188 111.073448,40.7932689 111.279703,40.567395 C111.265842,40.8729851 111.258636,41.1841609 111.258636,41.4999914 C111.258636,45.6421289 114.000017,49 114.000017,49 C114.000017,49 116.741398,45.6421289 116.741398,41.4999914 C116.741398,41.1841609 116.734158,40.8729851 116.720297,40.567395 C116.926587,40.7932689 117.141531,41.0184188 117.364853,41.2417413 C120.293802,44.1706898 124.606612,44.6066118 124.606612,44.6066118 C124.606612,44.6066118 124.17069,40.2938017 121.241776,37.3648532 C121.018419,37.1415307 120.793269,36.9265867 120.567395,36.7202969" id="flower-icon-white"></path>
                    </g>
                </g>
            </g>
        </g>
    </g>
</svg>