<?xml version="1.0" encoding="UTF-8"?>
<svg width="19px" height="19px" viewBox="0 0 19 19" version="1.1" xmlns="http://www.w3.org/2000/svg" xmlns:xlink="http://www.w3.org/1999/xlink">
    <!-- Generator: Sketch 51.2 (57519) - http://www.bohemiancoding.com/sketch -->
    <title>help-icon</title>
    <desc>Created with Sketch.</desc>
    <defs></defs>
    <g id="Symbols" stroke="none" stroke-width="1" fill="none" fill-rule="evenodd">
        <g id="Header" transform="translate(-1078.000000, -16.000000)" fill-rule="nonzero">
            <g transform="translate(0.000000, -7.000000)" id="Secondary-menu">
                <g transform="translate(1078.000000, 7.000000)">
                    <g id="help-icon" transform="translate(0.000000, 16.000000)">
                        <circle id="Oval" fill="#1993EF" cx="9.5" cy="9.5" r="9.5"></circle>
                        <path d="M8.07763314,10.444927 C8.07763314,7.22315317 11.0832189,8.18008672 11.0832189,5.86609783 C11.0832189,4.56764074 10.2373491,3.98191503 8.99564497,3.98191503 C7.54684024,3.98191503 6.93491124,4.82144665 6.93491124,6.32502329 L5,6.32502329 C5,3.58158781 6.56582249,2 8.92350296,2 C11.1012544,2 13,3.34724617 13,5.90518045 C13,9.47833838 9.94040237,9.09762951 9.94040237,10.464494 L9.94040237,11.860632 L8.07768047,11.860632 L8.07768047,10.444927 L8.07763314,10.444927 Z M7.83465089,13.4227042 L10.2373491,13.4227042 L10.2373491,16 L7.83465089,16 L7.83465089,13.4226528 L7.83465089,13.4227042 Z" id="Shape" fill="#FFFFFF"></path>
                    </g>
                </g>
            </g>
        </g>
    </g>
</svg>