<?xml version="1.0" encoding="UTF-8"?>
<svg width="31px" height="30px" viewBox="0 0 31 30" version="1.1" xmlns="http://www.w3.org/2000/svg" xmlns:xlink="http://www.w3.org/1999/xlink">
    <!-- Generator: Sketch 52.3 (67297) - http://www.bohemiancoding.com/sketch -->
    <title>pill-icon-white-highcontrast</title>
    <desc>Created with Sketch.</desc>
    <defs>
        <polygon id="path-1" points="1.22302158e-05 0.00445715503 16.9685683 0.00445715503 16.9685683 34.6464646 1.22302158e-05 34.6464646"></polygon>
        <polygon id="path-3" points="-4.54747351e-13 -2.27373675e-13 17 -2.27373675e-13 17 19 -4.54747351e-13 19"></polygon>
    </defs>
    <g id="Symbols" stroke="none" stroke-width="1" fill="none" fill-rule="evenodd">
        <g id="pill-icon-white-highcontrast" transform="translate(-3.000000, -3.000000)">
            <g transform="translate(18.384776, 18.384776) rotate(-315.000000) translate(-18.384776, -18.384776) translate(9.884776, 0.884776)">
                <g id="Group-3" transform="translate(-0.000000, -0.000000)">
                    <mask id="mask-2" fill="white">
                        <use xlink:href="#path-1"></use>
                    </mask>
                    <g id="Clip-2"></g>
                    <path d="M8.4842964,0.00445715503 C3.79853381,0.00445715503 1.22302158e-05,3.78676725 1.22302158e-05,8.45253175 L1.22302158e-05,17.3254365 L1.22302158e-05,26.1984022 C1.22302158e-05,30.8641667 3.79853381,34.6464768 8.4842964,34.6464768 C13.170059,34.6464768 16.9685806,30.8641667 16.9685806,26.1984022 L16.9685806,17.3254365 L16.9685806,8.45253175 C16.9685806,3.78676725 13.170059,0.00445715503 8.4842964,0.00445715503" id="Fill-1" fill="#FFFFFF" mask="url(#mask-2)"></path>
                </g>
                <path d="M8.70719651,18.7071068 C5.97438332,18.7071068 3.28356096,18.2442908 0.707106781,17.3314913 L0.707106781,8.76469604 C0.707106781,4.32173471 4.2958868,0.707106781 8.70713669,0.707106781 C13.1183268,0.707106781 16.7071068,4.32173471 16.7071068,8.76469604 L16.7071068,17.3314913 C14.1306526,18.2444113 11.440548,18.7071068 8.70719651,18.7071068" id="Fill-4" fill="#000000"></path>
                <g id="Group-8" transform="translate(-0.000000, -0.000000)"></g>
                <mask id="mask-4" fill="white">
                    <use xlink:href="#path-3"></use>
                </mask>
                <g id="Clip-7"></g>
                <path d="M8.5,-1.59161573e-12 C3.80555776,-1.59161573e-12 -2.27373675e-13,3.82232464 -2.27373675e-13,8.53745008 L-2.27373675e-13,17.5042248 L0.0464383789,17.5210237 C2.77907354,18.5071104 5.63938361,19 8.50006126,19 C11.3768514,19 14.2538867,18.5013262 17,17.5042248 L17,8.53745008 C17,3.82232464 13.1944422,-1.59161573e-12 8.5,-1.59161573e-12 M8.5,0.615342762 C10.6067585,0.615342762 12.5874963,1.43940979 14.0772003,2.93567725 C15.5669043,4.43194471 16.3873565,6.42134786 16.3873565,8.53745008 L16.3873565,17.0683775 C13.8436606,17.9420412 11.192507,18.3846572 8.50006126,18.3846572 C5.80804437,18.3846572 3.15640068,17.9419181 0.612643521,17.068316 L0.612643521,8.53745008 C0.612643521,6.42134786 1.43303446,4.43194471 2.92279971,2.93567725 C4.41250369,1.43940979 6.3931802,0.615342762 8.5,0.615342762" id="Fill-6" fill="#FFFFFF" mask="url(#mask-4)"></path>
            </g>
        </g>
    </g>
</svg>