<?xml version="1.0" encoding="UTF-8"?>
<svg width="45px" height="45px" viewBox="0 0 45 45" version="1.1" xmlns="http://www.w3.org/2000/svg" xmlns:xlink="http://www.w3.org/1999/xlink">
    <!-- Generator: Sketch 51.2 (57519) - http://www.bohemiancoding.com/sketch -->
    <title>Rss</title>
    <desc>Created with Sketch.</desc>
    <defs>
        <filter x="-6.5%" y="-5.8%" width="113.0%" height="111.5%" filterUnits="objectBoundingBox" id="filter-1">
            <feOffset dx="0" dy="0" in="SourceAlpha" result="shadowOffsetOuter1"></feOffset>
            <feGaussianBlur stdDeviation="5" in="shadowOffsetOuter1" result="shadowBlurOuter1"></feGaussianBlur>
            <feColorMatrix values="0 0 0 0 0   0 0 0 0 0   0 0 0 0 0  0 0 0 0.2 0" type="matrix" in="shadowBlurOuter1" result="shadowMatrixOuter1"></feColorMatrix>
            <feMerge>
                <feMergeNode in="shadowMatrixOuter1"></feMergeNode>
                <feMergeNode in="SourceGraphic"></feMergeNode>
            </feMerge>
        </filter>
    </defs>
    <g id="Homepage" stroke="none" stroke-width="1" fill="none" fill-rule="evenodd">
        <g id="Normal-view,-active-and-hover-states" transform="translate(-813.000000, -521.000000)" fill="#FFFFFF">
            <g id="Page-content" transform="translate(31.000000, 0.000000)">
                <g id="News-pod" filter="url(#filter-1)" transform="translate(689.000000, 509.000000)">
                    <g id="Pod-top" transform="translate(1.000000, 0.000000)">
                        <path d="M126.918883,46.9188831 L126.918883,44.6503077 C126.918883,41.5782631 126.319253,38.6450953 125.119974,35.8507163 C123.920695,33.0563373 122.310849,30.6489539 120.290389,28.6284938 C118.269929,26.6080337 115.862546,24.9981884 113.068167,23.7989094 C110.273788,22.5996305 107.34062,22 104.268575,22 L102,22 L102,26.5194276 L104.268575,26.5194276 C106.229958,26.5194276 108.135188,26.8236736 109.984322,27.4321747 C111.833457,28.0406759 113.499425,28.9061524 114.982277,30.0286302 C116.46513,31.151108 117.767775,32.4537535 118.890253,33.9366058 C120.012731,35.4194581 120.878207,37.0854265 121.486708,38.934561 C122.09521,40.7836956 122.399456,42.6889254 122.399456,44.6503077 L122.399456,46.9188831 L126.918883,46.9188831 Z M117.862305,46.9188831 L117.862305,44.6503077 C117.862305,42.192672 117.253813,39.9211655 116.03681,37.8357198 C114.819808,35.7502742 113.168609,34.099075 111.083163,32.8820727 C108.997718,31.6650704 106.726211,31.0565784 104.268575,31.0565784 L102,31.0565784 L102,35.5937293 L104.268575,35.5937293 C105.910938,35.5937293 107.42626,35.998406 108.814588,36.8077716 C110.202916,37.6171372 111.301746,38.7159674 112.111112,40.1042952 C112.920477,41.4926231 113.325154,43.0079454 113.325154,44.6503077 L113.325154,46.9188831 L117.862305,46.9188831 Z M105.402863,46.9188831 C106.336292,46.9188831 107.13383,46.5850987 107.795501,45.9175197 C108.457172,45.2499408 108.788003,44.4494489 108.788003,43.51602 C108.788003,42.5825911 108.457172,41.785053 107.795501,41.1233819 C107.13383,40.4617107 106.336292,40.1308801 105.402863,40.1308801 C104.469434,40.1308801 103.668942,40.4617107 103.001363,41.1233819 C102.333784,41.785053 102,42.5825911 102,43.51602 C102,44.4612645 102.330831,45.2647102 102.992502,45.9263814 C103.654173,46.5880525 104.457619,46.9188831 105.402863,46.9188831 Z" id="Rss"></path>
                    </g>
                </g>
            </g>
        </g>
    </g>
</svg>