<?xml version="1.0" encoding="UTF-8"?>
<svg width="34px" height="35px" viewBox="0 0 34 35" version="1.1" xmlns="http://www.w3.org/2000/svg" xmlns:xlink="http://www.w3.org/1999/xlink">
    <!-- Generator: Sketch 51.2 (57519) - http://www.bohemiancoding.com/sketch -->
    <title>search-icon-white</title>
    <desc>Created with Sketch.</desc>
    <defs>
        <filter x="-1.6%" y="-3.2%" width="103.2%" height="106.4%" filterUnits="objectBoundingBox" id="filter-1">
            <feOffset dx="0" dy="0" in="SourceAlpha" result="shadowOffsetOuter1"></feOffset>
            <feGaussianBlur stdDeviation="5" in="shadowOffsetOuter1" result="shadowBlurOuter1"></feGaussianBlur>
            <feColorMatrix values="0 0 0 0 0   0 0 0 0 0   0 0 0 0 0  0 0 0 0.2 0" type="matrix" in="shadowBlurOuter1" result="shadowMatrixOuter1"></feColorMatrix>
            <feMerge>
                <feMergeNode in="shadowMatrixOuter1"></feMergeNode>
                <feMergeNode in="SourceGraphic"></feMergeNode>
            </feMerge>
        </filter>
    </defs>
    <g id="Problems-/-Issues" stroke="none" stroke-width="1" fill="none" fill-rule="evenodd">
        <g id="Problems-/-Issues-+-active-state" transform="translate(-1147.000000, -284.000000)" fill="#FFFFFF">
            <g id="Table-content" filter="url(#filter-1)" transform="translate(233.000000, 282.000000)">
                <g id="Table-header">
                    <g id="search-icon-white" transform="translate(932.313708, 20.313708) rotate(-45.000000) translate(-932.313708, -20.313708) translate(925.813708, 10.813708)">
                        <path d="M6.2979,1.798 C3.81686942,1.798 1.7979,3.81612005 1.7979,6.298 C1.7979,8.77903058 3.81686942,10.798 6.2979,10.798 C8.77893058,10.798 10.7979,8.77903058 10.7979,6.298 C10.7979,3.81612005 8.77893058,1.798 6.2979,1.798 M6.2979,12.596 C2.8249,12.596 -0.0001,9.771 -0.0001,6.298 C-0.0001,2.825 2.8249,0 6.2979,0 C9.7709,0 12.5959,2.825 12.5959,6.298 C12.5959,9.771 9.7709,12.596 6.2979,12.596" id="Fill-1"></path>
                        <path d="M7.3184,11.6328 L7.3184,18.0238242 C7.3184,18.4651782 6.8614,18.8228001 6.2974,18.8228001 C5.7344,18.8228001 5.2774,18.4651782 5.2774,18.0238242 L5.2774,11.6328" id="Fill-4"></path>
                    </g>
                </g>
            </g>
        </g>
    </g>
</svg>